<svg id="Icon-Overline-28-Trabajo" xmlns="http://www.w3.org/2000/svg" width="28" height="28" viewBox="0 0 28 28">
  <path id="Trazado_303" data-name="Trazado 303" d="M0,0H28V28H0Z" fill="none"/>
  <path id="Unión_4" data-name="Unión 4" d="M2.507,24A2.6,2.6,0,0,1,0,21.335V2.67A2.6,2.6,0,0,1,2.507,0h20.8a2.6,2.6,0,0,1,2.507,2.67v4H23.312v-4H2.507V21.335H9.521V24Zm9.08-.011V19.535l7.764-8.2,1.667-1.763a1.862,1.862,0,0,1,2.743,0l1.486,1.573a2.114,2.114,0,0,1,0,2.9l-.878.93L24.344,15l-.751.792-7.759,8.2ZM13.6,20.424V21.9h1.4L22.159,14.3l-1.386-1.465ZM5.573,14V11.335h6.91V14Zm0-5.333V6H20.179V8.669Z" transform="translate(1.179 1.998)" fill="#001d36"/>
</svg>
