<?xml version="1.0" encoding="UTF-8"?><svg id="Capa_2" xmlns="http://www.w3.org/2000/svg" viewBox="0 0 115 115"><defs><style>.cls-1{fill:#cf8836;}.cls-2{fill:#e4f3ff;}</style></defs><g id="dummy-Act-Conversación"><circle class="cls-2" cx="57.5" cy="57.5" r="57.5"/><path class="cls-1" d="M42.38,75.65c-.86,0-1.58-.29-2.16-.87-.58-.58-.87-1.3-.87-2.16v-6.05h39.32v-27.22h6.05c.86,0,1.58.29,2.16.87s.87,1.3.87,2.16v45.37l-12.1-12.1h-33.27ZM27.25,72.62V30.28c0-.86.29-1.58.87-2.16s1.3-.87,2.16-.87h39.32c.86,0,1.58.29,2.16.87s.87,1.3.87,2.16v27.22c0,.86-.29,1.58-.87,2.16s-1.3.87-2.16.87h-30.25l-12.1,12.1ZM66.57,54.48v-21.17h-33.27v21.17h33.27ZM33.3,54.48v-21.17,21.17Z"/></g></svg>