<svg id="Icon-Overline-28-Clases" xmlns="http://www.w3.org/2000/svg" width="28" height="28" viewBox="0 0 28 28">
  <path id="Trazado_295" data-name="Trazado 295" d="M0,0H28V28H0Z" fill="none"/>
  <path id="Unión_8" data-name="Unión 8" d="M11.792,18.936V17.314c0-2.16,4.362-3.244,6.545-3.244s6.55,1.084,6.55,3.244v1.622Zm-3.426,0H0V15.695c0-1.2.654-2.888,3.766-4.123a16.065,16.065,0,0,1,3.254-.879,9.577,9.577,0,0,1,1.767-.117c1.259,0,2.511.1,2.533.117a15.677,15.677,0,0,1,3.25.879c.229.089.453.187.673.292a16.243,16.243,0,0,0-4.254,1.407A11.47,11.47,0,0,0,9.175,13.1a13.274,13.274,0,0,0-4.432.879c-1.31.525-2.124,1.186-2.124,1.717v.642H8.372c0,.043,0,.086,0,.132v2.467Zm6.7-9.732a3.273,3.273,0,1,1,3.271,3.244A3.257,3.257,0,0,1,15.066,9.2ZM3.875,4.642a4.689,4.689,0,0,1,9.378,0,4.689,4.689,0,0,1-9.378,0Zm2.348,0A2.343,2.343,0,1,0,8.567,2.322,2.339,2.339,0,0,0,6.222,4.642Z" transform="translate(1.555 4.532)" fill="#001d36"/>
</svg>
