<svg id="Icon-Overline-28-Documents" xmlns="http://www.w3.org/2000/svg" width="28" height="28" viewBox="0 0 28 28">
  <g id="Grupo_2741" data-name="Grupo 2741">
    <rect id="Rect치ngulo_251" data-name="Rect치ngulo 251" width="28" height="28" fill="none"/>
  </g>
  <path id="Uni칩n_12" data-name="Uni칩n 12" d="M2.534,24.078A2.542,2.542,0,0,1,0,21.543L.013,7.6a2.533,2.533,0,0,1,2.255-2.52V2.534A2.542,2.542,0,0,1,4.8,0H20.009a2.542,2.542,0,0,1,2.534,2.534v5.1a2.544,2.544,0,0,1,2.128,2.5V21.543a2.542,2.542,0,0,1-2.534,2.534Zm0-2.534h19.6V10.138H10.354L7.819,7.6H2.534ZM8.87,5.069,11.4,7.6h8.6V2.255H4.8V5.069Zm3.535,1.267V3.8h6.336V6.336Z" transform="translate(1.689 2.333)" fill="#001d36"/>
</svg>
