<svg id="logo-white" xmlns="http://www.w3.org/2000/svg" width="216.929" height="49.544" viewBox="0 0 216.929 49.544">
  <path id="circle5617" d="M24.75,13.67a11.1,11.1,0,1,0,11.1,11.1,11.165,11.165,0,0,0-11.1-11.1ZM4.65,15.65a4.08,4.08,0,0,0-3.9,3.09,24.754,24.754,0,1,0,48.06.21,4.081,4.081,0,1,0-7.93,1.93,16.59,16.59,0,1,1-32.21-.14,4.081,4.081,0,0,0-2.96-4.96,4,4,0,0,0-.91-.13H4.64Zm20.1,6.19a2.93,2.93,0,1,1-2.93,2.93A2.872,2.872,0,0,1,24.75,21.84Z" transform="translate(-0.001)" fill="#f8f9ff"/>
  <path id="path5631" d="M24.13,0a24.823,24.823,0,0,0-5.79.83.859.859,0,1,0,.44,1.66h0a23.014,23.014,0,0,1,14.25.77.861.861,0,0,0,1.11-.49h0a.861.861,0,0,0-.49-1.11h0A24.7,24.7,0,0,0,26.07.04C25.42.01,24.78,0,24.13.01h0ZM15.69,1.78a.8.8,0,0,0-.34.07A24.981,24.981,0,0,0,8.59,5.99a.858.858,0,1,0,1.12,1.3A23.227,23.227,0,0,1,16,3.44a.858.858,0,0,0,.47-1.12h0a.871.871,0,0,0-.78-.54h0ZM36.16,2.9a.883.883,0,0,0-.77.45.866.866,0,0,0,.34,1.17h0a23.039,23.039,0,0,1,5.94,4.63s.01.02.02.02a2.314,2.314,0,0,1-1.11,3.89,2.3,2.3,0,0,1-2.23-.69h0s-.01-.02-.02-.02c-.42-.47-.88-.92-1.35-1.35a.868.868,0,0,0-.61-.22.813.813,0,0,0-.6.28.855.855,0,0,0,.06,1.21h0a15.6,15.6,0,0,1,1.22,1.22s.02.02.02.03a4.026,4.026,0,1,0,5.9-5.48.265.265,0,0,0-.05-.06A24.7,24.7,0,0,0,36.54,3a.92.92,0,0,0-.4-.11h0Zm-12.02.19A21.548,21.548,0,0,0,9.2,9.76a.858.858,0,0,0,.03,1.22h0a.867.867,0,0,0,1.22-.03h0A19.8,19.8,0,0,1,24.2,4.81a.854.854,0,0,0,.83-.89h0a.854.854,0,0,0-.89-.83h0Zm3.11.02a.863.863,0,0,0-.11,1.72h0a19.688,19.688,0,0,1,6.85,2.14.859.859,0,1,0,.8-1.52h0a21.459,21.459,0,0,0-7.44-2.33h-.1ZM25.4,6.31a17.964,17.964,0,0,0-3.19.17.858.858,0,0,0,.24,1.7,16.562,16.562,0,0,1,11.07,2.35.857.857,0,0,0,1.18-.27h0a.851.851,0,0,0-.28-1.18,18.3,18.3,0,0,0-9.03-2.76h0Zm11.58.74a.886.886,0,0,0-.72.35.853.853,0,0,0,.19,1.2h0a19.417,19.417,0,0,1,2.65,2.31.866.866,0,0,0,1.22.03h0a.866.866,0,0,0,.03-1.22h0a20.9,20.9,0,0,0-2.88-2.51.837.837,0,0,0-.48-.16h0Zm-17.69.11a.78.78,0,0,0-.22.04,18.311,18.311,0,0,0-8.03,5.28h0a2.313,2.313,0,0,1-3.3-3.24A.867.867,0,0,0,7.7,8.02h0a.87.87,0,0,0-1.22.04,4.021,4.021,0,0,0,5.51,5.84.876.876,0,0,0,.24-.19h0l.06-.06a16.551,16.551,0,0,1,7.3-4.81.856.856,0,0,0,.55-1.08h0a.861.861,0,0,0-.86-.59h0Z" transform="translate(-0.001)" fill="#f8f9ff"/>
  <path id="Trazado_288" data-name="Trazado 288" d="M81.03,34.52,79.15,29.9h-8.7l-1.88,4.62H63.95l8.82-20.73h4.18l8.82,20.73H81.04ZM74.8,19.23,72.07,25.9h5.47l-2.73-6.67Z" transform="translate(-0.001)" fill="#f8f9ff"/>
  <path id="Trazado_289" data-name="Trazado 289" d="M89.44,34.52V13.94h4.53V34.52Z" transform="translate(-0.001)" fill="#f8f9ff"/>
  <g id="text10379" transform="translate(-0.001)">
    <g id="Grupo_2724" data-name="Grupo 2724">
      <path id="Trazado_290" data-name="Trazado 290" d="M111.88,13.94h2.31V32.27h11.52V34.4H111.88V13.94Z" fill="#f8f9ff"/>
      <path id="Trazado_291" data-name="Trazado 291" d="M146.22,16.05H133.74v6.99h11.17v2.1H133.74V32.3h12.63v2.1H131.43V13.94h14.79v2.1Z" fill="#f8f9ff"/>
      <path id="Trazado_292" data-name="Trazado 292" d="M171.54,34.4h-2.49l-2.4-5.41H155.51l-2.43,5.41h-2.37l9.32-20.61h2.16l9.33,20.61ZM161.1,16.51l-4.68,10.43h9.32l-4.65-10.43Z" fill="#f8f9ff"/>
      <path id="Trazado_293" data-name="Trazado 293" d="M191.12,34.4l-5.93-7.95h-5.85V34.4h-2.31V13.94h8.8a9.936,9.936,0,0,1,3.05.44,6.861,6.861,0,0,1,2.32,1.24,5.512,5.512,0,0,1,1.49,1.93,5.831,5.831,0,0,1,.53,2.5,6.073,6.073,0,0,1-.41,2.29,5.223,5.223,0,0,1-1.15,1.75,6.463,6.463,0,0,1-1.77,1.24,8,8,0,0,1-2.22.7l6.29,8.35h-2.84Zm-1.58-17.26a6.206,6.206,0,0,0-3.87-1.07h-6.33V24.4h6.3a7.473,7.473,0,0,0,2.11-.29,5.141,5.141,0,0,0,1.67-.84,3.925,3.925,0,0,0,1.1-1.33,3.994,3.994,0,0,0,.4-1.79A3.6,3.6,0,0,0,189.54,17.14Z" fill="#f8f9ff"/>
      <path id="Trazado_294" data-name="Trazado 294" d="M214.68,13.94h2.25V34.4h-1.84L201.88,17.62V34.4h-2.25V13.94h2.16l12.89,16.4Z" fill="#f8f9ff"/>
    </g>
  </g>
  <circle id="Elipse_17" data-name="Elipse 17" cx="2.94" cy="2.94" r="2.94" transform="translate(99.869 21.58)" fill="#f8f9ff"/>
</svg>
